<svg xmlns="http://www.w3.org/2000/svg" xmlns:xlink="http://www.w3.org/1999/xlink" id="Camada_1" x="0px" y="0px" viewBox="0 0 595.3 300.7" style="enable-background:new 0 0 595.3 300.7;" xml:space="preserve"><style type="text/css">	.st0{fill-rule:evenodd;clip-rule:evenodd;fill:#F04923;}</style><rect x="503.6" y="183.1" class="st0" width="91.6" height="24.8"/><path class="st0" d="M503.6-0.6v139.5c-0.3,5.4,1.5,10.9,5.5,16.6c3.3,4.7,8.6,8.8,15.6,12.2c7.1,3.4,15.3,5.1,24.6,5.1 c9.3,0,17.6-1.7,24.8-5.1c7.2-3.4,12.4-7.5,15.7-12.2c1.8-2.6,3.1-5.2,4-8c0.9-2.8,1.3-4.9,1.3-6.4v-2.2V-0.6h-28.6v139.5 c0,2.2-0.7,4.3-2.1,6.2c-0.9,1.2-1.8,2.2-2.5,2.8c-0.7,0.6-2.1,1.2-4.2,1.8c-2.1,0.7-5,1-8.6,1c-3.6,0-6.4-0.3-8.5-1 c-2.2-0.6-3.6-1.2-4.2-1.8c-0.7-0.6-1.5-1.6-2.5-2.8c-0.6-0.8-1-1.8-1.3-2.9c-0.4-1-0.6-1.9-0.6-2.5l-0.2-0.8V-0.6H503.6z"/><path class="st0" d="M399.3-0.3v207.5h13.3v0.4c17.5,0,30.2-1.7,38.3-5.1c11.8-5,20.1-13.4,24.9-25.3c1-2.5,1.9-5.1,2.7-7.8 c0.8-2.7,1.6-5.8,2.1-9.4c0.6-3.6,1-6.7,1.4-9.5c0.3-2.7,0.6-6.5,0.9-11.3c0.3-4.9,0.5-8.7,0.6-11.5c0.1-2.8,0.2-7.3,0.3-13.7 c0.1-6.4,0.1-11.1,0.1-14.3c0-3.2,0-8.7,0-16.7c0-8,0-13.9,0-17.6c0-14.3-3.6-26.3-10.8-36.1c-7.2-9.8-15.9-17-26-21.8 c-5.2-2.4-10.7-4.3-16.4-5.6c-5.8-1.4-10.2-2.1-13.3-2.2h-4.8H399.3L399.3-0.3z M425.8,28.1c4.1,1,7.6,2.2,10.4,3.4 c6.8,3,12.1,7,15.8,11.8c3.8,4.9,5.6,12.2,5.6,22c0,31.1-0.4,54.3-1.2,69.6c-0.8,15.3-2.5,26-5.1,32.2c-1.4,3.4-2.7,5.8-4.1,7.3 c-1.4,1.4-3.3,2.6-6,3.5c-4.9,1.6-10,2.6-15.5,2.8V28.1z"/><path class="st0" d="M295,0.1v207.1h26.4V91.9c0.3,0.8,1,2.3,1.9,4.3c1,1.9,1.6,3.4,2,4.3c9,20.2,15.9,38.5,20.7,55 c4.9,16.4,7.3,33.7,7.3,51.8h26.4V0.5h-26.4v98c-0.4-1.1-1-2.7-2-4.7c-1-2-1.6-3.3-1.8-3.8c-6.7-15-11.5-26.2-14.5-33.3 c-3-7.2-6-16.3-9-27.3c-3-11-4.5-20.7-4.5-29.2H295z"/><path class="st0" d="M261,5.2c-5.3-3.3-11.5-4.9-18.5-4.9S229.3,1.9,224,5.2c-5.3,3.3-9.3,7.3-11.8,11.9c-1.3,2.5-2.3,5-3,7.7 c-0.7,2.7-1.1,4.8-1.2,6.2v2.2v135.5h21.5V131h25.9v37.7H277V33.2c0.3-5.3-1-10.7-4-16.1C270.5,12.5,266.5,8.5,261,5.2L261,5.2z  M236,22.8c1.6-0.6,3.8-0.9,6.5-0.9s4.8,0.3,6.4,0.9c1.6,0.6,2.7,1.2,3.2,1.8c0.5,0.6,1.2,1.5,1.8,2.7c0.4,0.8,0.7,1.7,1,2.7 c0.3,0.9,0.4,1.7,0.4,2.4l0.2,0.8v76.3h-25.9V33.2c0-2.1,0.5-4.1,1.5-5.9c0.7-1.2,1.3-2.1,1.8-2.7C233.4,24,234.5,23.4,236,22.8z"/><path class="st0" d="M146.4,130.2c4,7.7,8.6,14.5,14.2,20.3c7.2,7,16.3,13.4,26.2,17.9c24.2,10.6,35,13.3,89.6,12.2v26.9 c-63.3,0.9-89.2-4.8-118.4-21.8c-12.8-7.5-21.4-17.3-27.5-29.6v51.2H104V-0.3h3C131.4-1.2,150.7,4,165,15.2 c8.6,6.7,15,15.4,19.2,26.1c4.1,10.7,5.5,21.6,4.1,32.7c-1,12.5-5.3,24-13,34.4C167.6,118.9,158,126.2,146.4,130.2L146.4,130.2z  M130.5,28.1v79.3c5.3-0.4,11.5-3.4,18.6-8.9c4.1-3.3,7.4-7.6,9.6-12.9c2.3-5.3,3.5-10.6,3.6-15.9c0.1-5.3-0.3-10.7-1.2-16.3 c-1.2-6.7-4.8-12.1-10.6-16.3C144.7,32.9,138,29.9,130.5,28.1z"/><path class="st0" d="M65.1,5.8c-6.5-4-14.1-6-22.7-6c-8.6,0-16.3,2-22.8,6C13,9.9,8.2,14.7,5.1,20.4c-1.6,3-2.8,6.2-3.7,9.5 c-0.8,3.3-1.3,5.9-1.4,7.6v2.7v166.3h26.4v-46.3h31.9v46.3h26.4V40.2c0.4-6.5-1.2-13.1-4.9-19.7C76.7,14.7,71.7,9.9,65.1,5.8 L65.1,5.8z M26.4,118.6V46.5l15.9,35.2l15.9-34.9v71.5L42.3,83.3L26.4,118.6L26.4,118.6z M58.3,120.4v13.5H26.4v-13.5H58.3 L58.3,120.4z M34.4,27.4c2-0.7,4.7-1.1,8-1.1c3.3,0,5.9,0.4,7.8,1.1c2,0.8,3.3,1.5,3.9,2.2c0.6,0.7,1.4,1.8,2.3,3.3 c0.5,1,0.9,2.1,1.2,3.4c0.3,1.2,0.5,2.1,0.5,2.9l0.2,1v4.5H26.4v-4.5c0-2.5,0.6-5,1.9-7.3c0.8-1.5,1.6-2.6,2.3-3.3 C31.2,28.9,32.5,28.2,34.4,27.4z"/><path class="st0" d="M227.6,241.1h-22.4v58.7h-17v-58.7h-22.5v-14.9h61.9V241.1L227.6,241.1z M287.7,284.9v14.9H236v-73.6h50.8v14.9 H253v14.3h29v13.8h-29v15.7H287.7L287.7,284.9z M294,262.4c0-4.4,0.8-8.8,2.4-13.2c1.6-4.4,3.9-8.3,6.9-11.8c3-3.5,6.8-6.3,11.1-8.4 c4.4-2.1,9.4-3.2,15-3.2c6.6,0,12.3,1.5,17.1,4.5c4.8,3,8.4,6.8,10.8,11.6l-13.1,9.1c-0.8-1.9-1.7-3.5-2.9-4.8 c-1.2-1.3-2.5-2.3-3.8-3.1c-1.4-0.8-2.8-1.3-4.3-1.7c-1.5-0.3-2.9-0.5-4.2-0.5c-3,0-5.7,0.7-7.9,2c-2.2,1.3-4,3-5.5,5.1 c-1.5,2.1-2.5,4.4-3.3,7c-0.7,2.6-1.1,5.3-1.1,8c0,2.9,0.4,5.7,1.3,8.4c0.9,2.7,2.1,5.1,3.6,7.2c1.6,2.1,3.4,3.7,5.6,4.9 c2.2,1.2,4.7,1.8,7.4,1.8c1.4,0,2.8-0.2,4.3-0.6c1.5-0.4,2.9-1,4.3-1.8c1.4-0.8,2.6-1.8,3.7-3.1c1.1-1.3,2-2.9,2.7-4.7l14,8.2 c-1.1,2.7-2.7,5.1-4.8,7.3c-2.1,2.1-4.5,3.9-7.2,5.4c-2.7,1.5-5.5,2.6-8.6,3.3c-3,0.8-6,1.1-8.9,1.1c-5.1,0-9.8-1.1-14-3.3 c-4.2-2.2-7.9-5.1-11-8.7c-3.1-3.6-5.5-7.7-7.2-12.2C294.9,271.7,294,267.1,294,262.4L294,262.4z M430.3,226.2v73.6h-17v-30.2H384 v30.2h-17v-73.6h17v28.5h29.3v-28.5H430.3z"/></svg>