<svg xmlns="http://www.w3.org/2000/svg" width="557pt" height="223pt" viewBox="0 0 557 223"><g id="#1a2e46ff"><path fill="#1a2e46" opacity="1.00" d=" M 102.25 0.00 L 119.50 0.00 C 119.51 10.65 119.49 21.30 119.51 31.95 C 114.64 32.01 109.76 32.15 104.90 32.48 C 72.28 34.37 42.54 59.28 34.90 91.04 C 34.17 92.81 34.24 95.71 31.91 96.14 C 26.72 96.62 21.50 96.10 16.30 96.22 C 19.11 75.23 29.68 55.55 45.05 41.08 C 60.51 26.25 81.15 17.58 102.26 14.86 C 102.24 9.90 102.25 4.95 102.25 0.00 Z"></path><path fill="#1a2e46" opacity="1.00" d=" M 348.00 26.00 C 356.58 24.59 365.15 23.20 373.75 21.88 C 373.75 53.28 373.77 84.67 373.74 116.07 C 373.87 121.06 373.20 126.60 376.09 130.99 C 378.78 134.74 383.68 135.41 387.92 135.96 C 386.69 142.99 385.53 150.04 384.27 157.06 C 374.40 156.99 363.59 155.91 355.74 149.30 C 349.65 144.07 348.15 135.60 348.00 127.98 C 347.99 93.99 348.00 60.00 348.00 26.00 Z"></path><path fill="#1a2e46" opacity="1.00" d=" M 265.31 66.07 C 275.96 63.29 286.96 61.65 297.99 61.98 C 308.07 62.02 318.99 64.19 326.41 71.52 C 333.02 78.16 334.82 87.95 335.00 96.98 C 334.98 115.55 335.04 134.13 334.97 152.71 C 323.13 155.10 311.16 157.29 299.04 157.02 C 288.27 157.24 276.68 156.64 267.45 150.46 C 260.10 145.63 256.69 136.55 256.95 128.01 C 256.62 121.27 258.60 114.30 263.32 109.35 C 269.65 102.65 279.06 100.09 287.96 99.22 C 295.45 98.71 303.02 98.79 310.40 100.27 C 310.15 96.50 310.05 92.46 307.81 89.24 C 305.56 85.55 301.24 83.79 297.09 83.41 C 287.49 82.69 277.75 83.76 268.59 86.73 C 267.51 79.84 266.33 72.97 265.31 66.07 M 287.34 118.37 C 280.76 121.41 280.90 132.73 287.87 135.20 C 294.99 137.88 302.84 136.63 310.25 136.26 C 310.24 129.86 310.28 123.45 310.22 117.04 C 302.67 116.20 294.46 115.06 287.34 118.37 Z"></path><path fill="#1a2e46" opacity="1.00" d=" M 188.88 125.75 C 194.65 125.75 200.42 125.75 206.19 125.75 C 203.60 146.74 192.56 165.94 177.71 180.70 C 164.34 193.94 146.69 202.51 128.19 205.64 C 125.58 206.12 122.90 206.34 120.41 207.32 C 119.29 212.11 120.32 217.15 120.01 222.04 C 114.26 222.39 108.50 222.22 102.75 222.25 C 102.75 211.44 102.75 200.65 102.75 189.85 C 118.49 191.14 134.73 188.35 148.59 180.58 C 162.85 172.73 174.94 160.71 182.03 145.98 C 185.22 139.58 187.29 132.70 188.88 125.75 Z"></path></g><g id="#26b2fdff"><path fill="#26b2fd" opacity="1.00" d=" M 126.00 15.96 C 139.09 18.16 151.90 22.63 163.05 29.92 C 180.58 41.31 194.59 58.35 201.60 78.12 C 204.47 85.97 206.12 94.21 207.02 102.50 C 212.01 102.50 217.00 102.50 221.99 102.50 C 222.00 108.08 222.00 113.66 222.00 119.25 C 211.31 119.25 200.62 119.25 189.94 119.25 C 191.23 103.56 188.26 87.39 180.59 73.57 C 171.78 57.40 157.38 44.19 140.11 37.60 C 135.56 35.74 130.78 34.58 126.07 33.25 C 125.87 27.49 126.06 21.72 126.00 15.96 Z"></path><path fill="#26b2fd" opacity="1.00" d=" M 98.50 47.76 C 112.62 44.93 127.69 46.96 140.48 53.59 C 152.22 59.50 162.02 69.13 168.20 80.72 C 175.59 94.43 177.67 110.89 174.01 126.02 C 169.71 144.39 156.90 160.57 139.97 168.91 C 126.55 175.79 110.64 177.53 96.02 173.94 C 78.60 169.80 63.29 157.97 54.62 142.34 C 46.84 128.46 44.55 111.65 48.27 96.17 C 53.76 72.10 74.21 52.31 98.50 47.76 M 89.66 84.69 C 86.68 91.11 87.66 98.36 87.48 105.21 C 85.39 106.95 83.07 109.01 83.29 112.00 C 83.21 120.35 83.19 128.70 83.29 137.05 C 83.14 140.66 86.26 144.15 90.00 143.75 C 104.02 143.77 118.04 143.75 132.06 143.76 C 135.07 144.03 138.27 142.05 138.78 138.95 C 139.20 136.00 138.99 133.01 139.01 130.05 C 138.87 123.67 139.24 117.28 138.88 110.91 C 138.72 107.47 135.37 104.97 132.05 105.26 C 121.62 105.20 111.19 105.28 100.77 105.24 C 100.90 100.55 100.29 95.78 101.17 91.14 C 103.16 84.40 112.33 81.59 117.70 86.21 C 122.16 89.50 121.89 95.47 121.80 100.41 C 125.73 101.07 129.84 101.49 133.76 100.61 C 135.19 99.53 134.65 97.53 134.82 96.00 C 134.99 89.90 133.15 83.66 129.09 79.04 C 123.79 72.72 115.00 69.65 106.91 71.20 C 99.41 72.51 92.71 77.70 89.66 84.69 Z"></path><path fill="#26b2fd" opacity="1.00" d=" M 503.52 62.61 C 514.74 60.85 526.85 62.24 536.55 68.50 C 547.86 75.41 554.66 88.12 556.25 101.06 C 557.90 114.42 555.89 128.81 547.99 140.00 C 540.22 151.14 526.51 157.36 513.07 157.03 C 500.85 157.60 488.33 153.00 479.93 144.01 C 472.24 135.60 468.20 124.28 467.69 112.98 C 466.81 99.87 470.32 86.05 479.16 76.07 C 485.42 68.96 494.21 64.25 503.52 62.61 M 507.53 84.72 C 499.74 86.67 495.59 94.73 494.57 102.14 C 493.36 111.07 493.85 121.09 499.35 128.62 C 505.08 136.82 518.95 137.01 524.89 128.98 C 529.48 123.07 530.49 115.26 530.29 107.99 C 530.23 101.02 528.63 93.44 523.52 88.35 C 519.38 84.23 513.01 83.45 507.53 84.72 Z"></path><path fill="#26b2fd" opacity="1.00" d=" M 379.48 65.00 C 388.66 65.00 397.85 65.00 407.04 65.00 C 412.41 84.77 418.59 104.33 425.59 123.59 C 432.68 104.36 438.81 84.78 444.23 65.02 C 453.18 64.98 462.14 65.01 471.09 65.00 C 461.81 95.86 450.62 126.24 436.00 155.00 C 428.88 155.00 421.76 154.99 414.64 155.01 C 399.94 126.28 388.84 95.84 379.48 65.00 Z"></path><path fill="#26b2fd" opacity="1.00" d=" M 0.25 102.75 C 11.01 102.75 21.77 102.75 32.52 102.75 C 30.14 122.32 36.49 142.25 47.76 158.17 C 58.06 172.64 73.81 182.74 90.87 187.30 C 92.97 188.07 96.18 188.36 96.61 191.07 C 96.68 196.10 96.37 201.14 96.50 206.18 C 76.16 203.04 56.73 193.44 42.54 178.43 C 26.80 162.95 17.37 141.65 15.31 119.76 C 10.29 119.74 5.27 119.76 0.25 119.75 C 0.25 114.08 0.25 108.42 0.25 102.75 Z"></path><path fill="#26b2fd" opacity="1.00" d=" M 105.52 117.62 C 107.40 112.98 114.55 112.87 116.67 117.36 C 118.88 120.85 116.18 124.54 113.31 126.54 C 113.24 128.96 113.42 131.41 112.92 133.80 C 112.42 135.55 109.86 135.45 109.43 133.75 C 109.09 131.39 109.22 128.99 109.15 126.61 C 106.27 124.68 103.66 121.18 105.52 117.62 Z"></path></g><g id="#ffffffff"><path fill="#ffffff" opacity="1.00" d=" M 89.66 84.69 C 92.71 77.70 99.41 72.51 106.91 71.20 C 115.00 69.65 123.79 72.72 129.09 79.04 C 133.15 83.66 134.99 89.90 134.82 96.00 C 134.65 97.53 135.19 99.53 133.76 100.61 C 129.84 101.49 125.73 101.07 121.80 100.41 C 121.89 95.47 122.16 89.50 117.70 86.21 C 112.33 81.59 103.16 84.40 101.17 91.14 C 100.29 95.78 100.90 100.55 100.77 105.24 C 111.19 105.28 121.62 105.20 132.05 105.26 C 135.37 104.97 138.72 107.47 138.88 110.91 C 139.24 117.28 138.87 123.67 139.01 130.05 C 138.99 133.01 139.20 136.00 138.78 138.95 C 138.27 142.05 135.07 144.03 132.06 143.76 C 118.04 143.75 104.02 143.77 90.00 143.75 C 86.26 144.15 83.14 140.66 83.29 137.05 C 83.19 128.70 83.21 120.35 83.29 112.00 C 83.07 109.01 85.39 106.95 87.48 105.21 C 87.66 98.36 86.68 91.11 89.66 84.69 M 105.52 117.62 C 103.66 121.18 106.27 124.68 109.15 126.61 C 109.22 128.99 109.09 131.39 109.43 133.75 C 109.86 135.45 112.42 135.55 112.92 133.80 C 113.42 131.41 113.24 128.96 113.31 126.54 C 116.18 124.54 118.88 120.85 116.67 117.36 C 114.55 112.87 107.40 112.98 105.52 117.62 Z"></path></g><g id="#000000fe"><path fill="#000000" opacity="1.00" d=" M 329.62 178.41 C 329.67 174.23 337.26 171.76 338.60 176.14 C 336.96 176.06 335.32 175.98 333.69 175.90 C 333.00 177.53 332.36 179.17 331.78 180.84 C 333.89 180.94 336.01 181.00 338.14 181.05 C 338.14 181.53 338.14 182.51 338.14 183.00 C 336.17 183.00 334.22 183.00 332.26 183.01 C 332.27 187.67 332.27 192.34 332.26 197.01 C 331.54 197.00 330.11 196.99 329.39 196.98 C 329.54 190.79 329.09 184.58 329.62 178.41 Z"></path><path fill="#000000" opacity="1.00" d=" M 538.85 174.76 C 539.75 174.43 540.67 174.11 541.59 173.79 C 541.63 180.52 541.56 187.24 541.64 193.97 C 542.38 194.49 543.87 195.51 544.61 196.03 C 542.70 197.56 539.16 196.78 539.02 194.05 C 538.60 187.63 539.01 181.19 538.85 174.76 Z"></path><path fill="#000000" opacity="1.00" d=" M 319.73 177.20 C 319.76 176.28 319.80 175.36 319.85 174.45 C 321.14 175.03 322.44 175.65 323.65 176.41 C 322.67 176.61 320.71 177.00 319.73 177.20 Z"></path><path fill="#000000" opacity="1.00" d=" M 341.07 175.27 C 342.01 174.02 344.90 175.16 343.70 176.73 C 342.75 177.98 339.86 176.83 341.07 175.27 Z"></path><path fill="#000000" opacity="1.00" d=" M 402.14 175.25 C 403.76 174.67 405.44 175.67 407.05 175.92 C 408.18 175.64 409.31 175.36 410.45 175.10 C 409.55 176.15 408.85 178.37 407.04 177.79 C 404.74 177.39 402.41 177.30 400.11 177.69 C 400.76 176.86 401.39 176.00 402.14 175.25 Z"></path><path fill="#000000" opacity="1.00" d=" M 468.32 175.62 C 469.31 175.42 471.29 175.00 472.28 174.79 C 472.23 175.71 472.19 176.63 472.16 177.55 C 470.84 176.95 469.55 176.34 468.32 175.62 Z"></path><path fill="#000000" opacity="1.00" d=" M 497.81 177.52 C 497.78 176.62 497.76 175.72 497.75 174.81 C 498.72 175.00 500.66 175.37 501.63 175.55 C 500.46 176.40 499.14 177.00 497.81 177.52 Z"></path><path fill="#000000" opacity="1.00" d=" M 258.11 177.00 C 261.28 175.39 265.06 175.82 268.27 177.10 C 268.29 177.83 268.33 179.30 268.35 180.03 C 265.57 179.47 262.51 178.26 259.76 179.63 C 255.32 181.54 254.80 187.96 257.28 191.62 C 259.90 195.00 264.63 194.07 268.21 193.09 C 268.43 194.06 268.65 195.03 268.88 196.00 C 264.88 196.99 260.29 197.88 256.66 195.36 C 250.82 191.04 251.35 180.19 258.11 177.00 Z"></path><path fill="#000000" opacity="1.00" d=" M 305.72 176.77 C 306.40 176.52 307.77 176.03 308.45 175.79 C 308.45 177.50 308.45 179.22 308.45 180.93 C 310.64 180.98 312.83 181.05 315.02 181.21 C 313.93 183.90 310.70 182.75 308.45 183.11 C 308.53 187.17 307.88 191.44 309.72 195.23 C 311.33 195.00 312.94 194.77 314.55 194.53 C 314.67 195.01 314.92 195.98 315.04 196.46 C 312.68 196.68 310.02 197.70 307.87 196.23 C 306.01 195.24 305.83 192.86 305.75 191.01 C 305.63 186.26 305.79 181.51 305.72 176.77 Z"></path><path fill="#000000" opacity="1.00" d=" M 445.97 176.48 C 449.87 175.90 454.06 175.47 457.75 177.19 C 465.05 180.34 465.05 192.66 457.75 195.81 C 454.10 197.51 449.98 197.02 446.11 196.68 C 445.88 189.95 446.06 183.22 445.97 176.48 M 449.00 178.88 C 449.00 183.96 449.00 189.04 449.01 194.12 C 452.04 193.89 455.63 194.35 458.02 192.03 C 460.73 189.09 460.74 183.95 458.05 181.00 C 455.67 178.65 452.05 179.11 449.00 178.88 Z"></path><path fill="#000000" opacity="1.00" d=" M 507.26 176.58 C 507.94 176.42 509.31 176.08 510.00 175.92 C 509.99 177.60 509.99 179.29 510.00 180.98 C 511.97 181.00 513.94 181.01 515.92 181.04 C 515.92 181.52 515.90 182.49 515.89 182.97 C 513.92 182.99 511.96 183.00 510.00 183.01 C 510.08 186.50 509.64 190.06 510.40 193.50 C 511.54 196.01 514.90 194.48 517.00 194.91 C 515.37 197.39 511.99 197.55 509.53 196.38 C 507.57 195.40 507.34 192.94 507.28 191.02 C 507.16 186.21 507.31 181.39 507.26 176.58 Z"></path><path fill="#000000" opacity="1.00" d=" M 277.48 196.62 C 270.86 194.81 270.85 183.94 276.98 181.48 C 279.80 180.30 283.66 181.07 285.13 183.96 C 285.97 185.84 286.01 187.96 286.36 189.97 C 282.51 189.99 278.67 189.95 274.83 190.21 C 275.87 191.76 276.27 194.21 278.36 194.68 C 280.80 195.46 283.85 193.82 285.78 196.04 C 283.10 196.70 280.20 197.57 277.48 196.62 M 275.09 187.90 C 277.94 188.00 280.80 188.01 283.66 187.94 C 282.95 186.07 282.48 182.94 279.91 182.97 C 277.03 182.71 276.16 185.90 275.09 187.90 Z"></path><path fill="#000000" opacity="1.00" d=" M 292.37 181.87 C 295.44 181.46 299.98 179.35 301.71 183.12 C 299.58 183.11 297.45 183.07 295.32 183.07 C 295.24 187.72 295.27 192.37 295.26 197.02 C 294.54 197.01 293.10 196.98 292.38 196.97 C 292.41 191.93 292.41 186.90 292.37 181.87 Z"></path><path fill="#000000" opacity="1.00" d=" M 319.87 180.99 C 320.59 181.00 322.02 181.01 322.74 181.01 C 322.73 186.34 322.73 191.66 322.74 196.99 C 322.02 196.99 320.59 197.00 319.87 197.01 C 319.86 191.67 319.86 186.33 319.87 180.99 Z"></path><path fill="#000000" opacity="1.00" d=" M 341.00 181.00 C 341.72 181.00 343.15 181.00 343.87 181.00 C 343.87 186.33 343.87 191.67 343.87 197.00 C 343.15 197.00 341.72 197.00 341.00 197.00 C 341.00 191.67 341.00 186.33 341.00 181.00 Z"></path><path fill="#000000" opacity="1.00" d=" M 353.67 181.73 C 356.23 180.49 360.01 180.38 361.67 183.11 C 358.83 183.38 354.77 182.05 353.14 185.23 C 352.02 187.81 351.95 191.17 353.65 193.52 C 355.50 195.67 358.59 194.79 361.03 194.72 L 361.40 196.50 C 358.89 196.76 356.20 197.53 353.80 196.39 C 348.04 193.98 348.11 184.34 353.67 181.73 Z"></path><path fill="#000000" opacity="1.00" d=" M 366.20 183.08 C 368.94 179.50 376.44 180.21 377.31 185.06 C 377.70 188.84 377.41 192.66 377.47 196.45 C 374.20 196.79 370.66 197.70 367.53 196.26 C 364.80 195.05 364.38 190.62 367.04 189.13 C 369.43 187.60 372.38 188.10 375.06 188.10 C 374.22 186.44 374.50 183.12 371.99 183.16 C 370.06 183.00 368.12 183.12 366.20 183.08 M 369.69 189.86 C 369.07 190.85 368.43 191.83 367.96 192.91 C 369.02 195.61 372.31 194.84 374.60 195.13 C 374.59 193.45 374.59 191.78 374.59 190.10 C 372.95 190.02 371.31 189.94 369.69 189.86 Z"></path><path fill="#000000" opacity="1.00" d=" M 385.68 182.67 C 388.14 180.32 391.71 181.06 394.74 181.44 L 394.02 183.29 C 391.78 183.26 389.03 182.29 387.35 184.30 C 385.31 186.65 385.43 190.45 386.82 193.10 C 388.50 195.75 391.89 194.84 394.49 194.72 L 394.92 196.35 C 393.59 196.61 392.27 196.87 390.95 197.12 C 391.47 198.39 392.03 199.64 392.42 200.96 C 391.70 203.62 386.90 204.04 386.44 200.97 C 387.32 200.98 389.06 200.99 389.93 201.00 C 389.46 199.71 388.99 198.43 388.55 197.14 C 382.61 195.18 381.14 186.73 385.68 182.67 Z"></path><path fill="#000000" opacity="1.00" d=" M 400.27 181.47 C 403.58 181.02 408.40 180.00 410.22 183.71 C 411.25 187.87 410.56 192.23 410.74 196.48 C 407.46 196.76 403.90 197.72 400.79 196.18 C 398.19 194.98 397.94 190.84 400.27 189.24 C 402.55 187.61 405.53 188.13 408.16 188.11 C 407.92 186.87 407.68 185.63 407.45 184.39 C 407.04 184.02 406.23 183.28 405.82 182.90 C 404.12 183.05 402.42 183.21 400.73 183.40 L 400.27 181.47 M 401.32 193.05 C 402.61 195.62 405.70 194.86 408.03 195.13 C 407.99 193.37 407.95 191.60 407.91 189.85 C 405.50 190.16 401.29 189.48 401.32 193.05 Z"></path><path fill="#000000" opacity="1.00" d=" M 420.45 181.76 C 424.59 179.41 430.24 182.23 430.93 186.92 C 432.42 191.92 428.27 198.04 422.75 196.98 C 415.53 196.15 414.28 184.88 420.45 181.76 M 422.23 183.26 C 418.85 184.91 418.82 189.73 420.14 192.76 C 421.47 195.85 426.42 195.74 427.61 192.59 C 429.81 188.84 427.56 181.34 422.23 183.26 Z"></path><path fill="#000000" opacity="1.00" d=" M 469.39 181.01 C 470.11 181.01 471.54 181.00 472.26 180.99 C 472.27 186.33 472.27 191.68 472.26 197.02 C 471.54 197.01 470.10 196.98 469.38 196.97 C 469.40 191.65 469.40 186.33 469.39 181.01 Z"></path><path fill="#000000" opacity="1.00" d=" M 481.85 181.82 C 484.84 180.24 488.30 181.28 491.46 181.67 C 491.25 187.47 491.99 193.34 491.03 199.08 C 489.16 204.24 482.44 203.22 478.22 202.14 C 480.23 199.23 484.02 201.99 486.63 200.50 C 488.50 199.57 488.35 197.14 489.10 195.46 C 486.57 195.67 483.81 196.61 481.46 195.21 C 476.66 192.54 476.87 184.22 481.85 181.82 M 481.80 184.88 C 480.34 187.45 480.32 191.49 482.89 193.37 C 484.64 194.66 486.79 193.63 488.65 193.20 C 488.60 189.77 488.59 186.33 488.57 182.90 C 486.24 183.08 483.28 182.57 481.80 184.88 Z"></path><path fill="#000000" opacity="1.00" d=" M 497.87 181.00 C 498.59 181.00 500.02 181.00 500.74 181.01 C 500.73 186.33 500.73 191.66 500.74 196.99 C 500.02 197.00 498.59 197.00 497.87 197.00 C 497.86 191.67 497.86 186.33 497.87 181.00 Z"></path><path fill="#000000" opacity="1.00" d=" M 521.26 183.13 C 524.06 179.09 532.56 180.52 532.41 186.04 C 532.61 189.51 532.44 192.98 532.47 196.45 C 529.18 196.79 525.62 197.70 522.48 196.24 C 519.80 195.00 519.40 190.63 522.03 189.13 C 524.42 187.61 527.37 188.10 530.05 188.10 C 529.23 186.41 529.51 183.19 527.01 183.14 C 525.09 182.99 523.17 183.14 521.26 183.13 M 524.72 189.85 C 523.98 191.03 522.77 192.16 523.26 193.70 C 524.89 195.43 527.45 194.87 529.59 195.13 C 529.59 193.47 529.61 191.81 529.63 190.15 C 527.99 190.05 526.35 189.95 524.72 189.85 Z"></path></g></svg>